<svg width="34" height="34" viewBox="0 0 34 34" fill="none" xmlns="http://www.w3.org/2000/svg">
<path fill-rule="evenodd" clip-rule="evenodd" d="M21.3985 23.7075C21.2414 25.0036 20.4527 26.0425 19.2312 26.562C18.5508 26.8523 17.6383 27.0089 16.9152 26.9591C15.7874 26.9166 14.7282 26.6429 13.7522 26.1431C13.4026 25.9647 12.8835 25.6081 12.4839 25.2742C12.383 25.1902 12.3705 25.1363 12.4371 25.0409C12.4735 24.987 12.5401 24.8895 12.6879 24.6738C12.9011 24.3617 12.9272 24.3234 12.9521 24.2861C13.0198 24.1823 13.1311 24.173 13.2403 24.2591C13.2518 24.2674 13.2518 24.2674 13.2611 24.2746C13.2788 24.2881 13.2788 24.2881 13.3215 24.3213C13.3641 24.3545 13.3891 24.3742 13.3995 24.3815C14.4525 25.2037 15.6792 25.6775 16.9173 25.7253C18.6403 25.7014 19.8794 24.93 20.1011 23.7448C20.3455 22.4405 19.3176 21.3134 17.3075 20.685C16.678 20.4891 15.0892 19.8545 14.7958 19.6834C13.4203 18.8788 12.7763 17.8254 12.8679 16.5231C13.0083 14.7189 14.6886 13.373 16.8133 13.3637C17.7632 13.3627 18.711 13.5586 19.6214 13.9412C19.9439 14.0771 20.5193 14.3892 20.718 14.5364C20.8325 14.6204 20.8554 14.7178 20.7898 14.8236C20.7524 14.8848 20.692 14.9812 20.5651 15.1834L20.563 15.1855C20.3955 15.4509 20.3903 15.4592 20.3518 15.5214C20.2852 15.6231 20.2061 15.6324 20.0865 15.5567C19.1116 14.9045 18.0316 14.5758 16.8434 14.552C15.365 14.581 14.2569 15.4582 14.184 16.6537C14.1643 17.7331 14.9768 18.5201 16.7311 19.1214C20.2925 20.262 21.6555 21.5985 21.3985 23.7075ZM17.0005 5.07604C19.3187 5.07604 21.2092 7.26902 21.2976 10.0136H12.7035C12.7919 7.26902 14.6814 5.07604 17.0005 5.07604ZM29 10.5299C29 10.2448 28.7701 10.0136 28.486 10.0136H22.9155C22.7792 6.38976 20.1833 3.5 17.0005 3.5C13.8178 3.5 11.2219 6.38976 11.0856 10.0136H5.50773C5.22786 10.0188 5.00206 10.2479 5.00206 10.5299C5.00206 10.5434 5.00312 10.5569 5.00414 10.5704H5L5.7949 28.0385C5.7949 28.0872 5.79699 28.136 5.80113 28.1857C5.80113 28.1971 5.80218 28.2075 5.80322 28.2189L5.8053 28.2562L5.80739 28.2573C5.92806 29.4735 6.81351 30.4523 8.01624 30.4979L8.01938 30.5H25.8017L25.8027 30.4989C27.0273 30.4658 28.0199 29.4735 28.124 28.2427L28.125 28.2417L28.126 28.2251C28.1271 28.2127 28.1281 28.2002 28.1281 28.1868C28.1302 28.1556 28.1323 28.1246 28.1323 28.0945L29 10.5569H28.999C29 10.5476 29 10.5393 29 10.5299Z" fill="white"/>
</svg>
