<svg width="34" height="34" viewBox="0 0 34 34" fill="none" xmlns="http://www.w3.org/2000/svg">
<path d="M17.5268 5.02033C18.8357 5.00008 20.137 5.01208 21.4368 5.00008C21.5156 6.53091 22.0661 8.09024 23.1866 9.17255C24.305 10.2819 25.8868 10.7896 27.4259 10.9614V14.9884C25.9835 14.9411 24.5345 14.6411 23.2256 14.0201C22.6556 13.762 22.1246 13.4298 21.6048 13.09C21.5981 16.0122 21.6168 18.9306 21.5861 21.8407C21.5081 23.2388 21.0468 24.6301 20.2337 25.7822C18.9257 27.7 16.6553 28.9504 14.3234 28.9894C12.8931 29.0711 11.4643 28.6811 10.2455 27.9626C8.2256 26.7715 6.80427 24.5911 6.59726 22.251C6.57118 21.7554 6.56718 21.2589 6.58526 20.7629C6.76527 18.8601 7.70657 17.0397 9.16765 15.8014C10.8237 14.3591 13.1436 13.672 15.3157 14.0786C15.336 15.5599 15.2767 17.0397 15.2767 18.521C14.2844 18.2 13.1249 18.29 12.2578 18.8923C11.6235 19.3102 11.1441 19.9251 10.8935 20.6422C10.6865 21.1492 10.7457 21.7125 10.7577 22.251C10.9955 23.8921 12.5736 25.2714 14.2582 25.1221C15.375 25.1101 16.4453 24.4621 17.0273 23.5133C17.2156 23.181 17.4263 22.8413 17.4376 22.4505C17.5358 20.6617 17.4968 18.8803 17.5088 17.0915C17.5171 13.06 17.4968 9.03979 17.5276 5.02108L17.5268 5.02033Z" fill="white"/>
</svg>
