<svg width="34" height="34" viewBox="0 0 34 34" fill="none" xmlns="http://www.w3.org/2000/svg">
<path fill-rule="evenodd" clip-rule="evenodd" d="M12.0527 5.07208C13.3324 5.01317 13.7404 5.00008 17 5.00008C20.2596 5.00008 20.6676 5.01426 21.9462 5.07208C23.2247 5.12989 24.0975 5.33389 24.8611 5.62953C25.6607 5.93171 26.3862 6.40408 26.9862 7.01499C27.5971 7.61389 28.0684 8.33826 28.3695 9.13899C28.6662 9.90262 28.8691 10.7753 28.928 12.0517C28.9869 13.3335 29 13.7415 29 17.0001C29 20.2597 28.9858 20.6677 28.928 21.9473C28.8702 23.2237 28.6662 24.0964 28.3695 24.8601C28.0684 25.6609 27.5963 26.3865 26.9862 26.9863C26.3862 27.5972 25.6607 28.0684 24.8611 28.3695C24.0975 28.6663 23.2247 28.8692 21.9484 28.9281C20.6676 28.987 20.2596 29.0001 17 29.0001C13.7404 29.0001 13.3324 28.9859 12.0527 28.9281C10.7764 28.8703 9.90364 28.6663 9.14 28.3695C8.33919 28.0684 7.61362 27.5964 7.01382 26.9863C6.40332 26.387 5.93089 25.6618 5.62945 24.8612C5.33382 24.0975 5.13091 23.2248 5.072 21.9484C5.01309 20.6666 5 20.2586 5 17.0001C5 13.7404 5.01418 13.3324 5.072 12.0539C5.12982 10.7753 5.33382 9.90262 5.62945 9.13899C5.93133 8.33835 6.40413 7.61315 7.01491 7.01389C7.61386 6.40353 8.3387 5.93111 9.13891 5.62953C9.90255 5.33389 10.7753 5.13099 12.0516 5.07208H12.0527ZM21.8491 7.23208C20.5836 7.17426 20.204 7.16226 17 7.16226C13.796 7.16226 13.4164 7.17426 12.1509 7.23208C10.9804 7.28553 10.3455 7.4808 9.92218 7.64553C9.36255 7.86371 8.96218 8.12226 8.54218 8.54226C8.14405 8.92959 7.83765 9.40111 7.64545 9.92226C7.48073 10.3455 7.28545 10.9804 7.232 12.151C7.17418 13.4164 7.16218 13.7961 7.16218 17.0001C7.16218 20.2041 7.17418 20.5837 7.232 21.8492C7.28545 23.0197 7.48073 23.6546 7.64545 24.0779C7.83745 24.5983 8.144 25.0706 8.54218 25.4579C8.92945 25.8561 9.40182 26.1626 9.92218 26.3546C10.3455 26.5194 10.9804 26.7146 12.1509 26.7681C13.4164 26.8259 13.7949 26.8379 17 26.8379C20.2051 26.8379 20.5836 26.8259 21.8491 26.7681C23.0196 26.7146 23.6545 26.5194 24.0778 26.3546C24.6375 26.1364 25.0378 25.8779 25.4578 25.4579C25.856 25.0706 26.1625 24.5983 26.3545 24.0779C26.5193 23.6546 26.7145 23.0197 26.768 21.8492C26.8258 20.5837 26.8378 20.2041 26.8378 17.0001C26.8378 13.7961 26.8258 13.4164 26.768 12.151C26.7145 10.9804 26.5193 10.3455 26.3545 9.92226C26.1364 9.36262 25.8778 8.96226 25.4578 8.54226C25.0705 8.14415 24.5989 7.83776 24.0778 7.64553C23.6545 7.4808 23.0196 7.28553 21.8491 7.23208V7.23208ZM15.4673 20.6993C16.3233 21.0557 17.2764 21.1038 18.1639 20.8354C19.0514 20.5671 19.8182 19.9989 20.3334 19.228C20.8485 18.4571 21.0801 17.5312 20.9884 16.6086C20.8968 15.6859 20.4876 14.8237 19.8309 14.1692C19.4123 13.7508 18.9061 13.4304 18.3487 13.2311C17.7914 13.0319 17.1968 12.9587 16.6078 13.0167C16.0188 13.0748 15.45 13.2628 14.9423 13.5671C14.4347 13.8714 14.0008 14.2845 13.672 14.7766C13.3431 15.2688 13.1275 15.8277 13.0406 16.4131C12.9536 16.9986 12.9976 17.596 13.1693 18.1625C13.341 18.7289 13.6362 19.2502 14.0335 19.6889C14.4309 20.1275 14.9205 20.4726 15.4673 20.6993ZM12.6385 12.6386C13.2113 12.0659 13.8913 11.6115 14.6396 11.3016C15.3879 10.9916 16.19 10.832 17 10.832C17.81 10.832 18.6121 10.9916 19.3604 11.3016C20.1087 11.6115 20.7887 12.0659 21.3615 12.6386C21.9342 13.2114 22.3885 13.8913 22.6985 14.6397C23.0085 15.388 23.168 16.1901 23.168 17.0001C23.168 17.8101 23.0085 18.6121 22.6985 19.3605C22.3885 20.1088 21.9342 20.7888 21.3615 21.3615C20.2047 22.5183 18.6359 23.1681 17 23.1681C15.3641 23.1681 13.7953 22.5183 12.6385 21.3615C11.4818 20.2048 10.832 18.6359 10.832 17.0001C10.832 15.3642 11.4818 13.7954 12.6385 12.6386V12.6386ZM24.536 11.7506C24.6779 11.6167 24.7916 11.4557 24.8702 11.2771C24.9487 11.0985 24.9907 10.906 24.9935 10.7109C24.9964 10.5158 24.9601 10.3221 24.8867 10.1413C24.8134 9.96052 24.7045 9.79627 24.5665 9.6583C24.4285 9.52033 24.2643 9.41145 24.0835 9.3381C23.9027 9.26474 23.709 9.22841 23.5139 9.23126C23.3188 9.2341 23.1263 9.27606 22.9477 9.35465C22.7691 9.43325 22.6081 9.54687 22.4742 9.6888C22.2138 9.96484 22.0712 10.3315 22.0768 10.7109C22.0823 11.0903 22.2355 11.4527 22.5038 11.721C22.7721 11.9893 23.1345 12.1425 23.5139 12.148C23.8933 12.1536 24.26 12.011 24.536 11.7506V11.7506Z" fill="white"/>
</svg>
