<svg width="34" height="34" viewBox="0 0 34 34" fill="none" xmlns="http://www.w3.org/2000/svg">
<path d="M25.4555 8.48907C24.3552 7.37859 23.0449 6.49819 21.601 5.89918C20.157 5.30017 18.6083 4.99453 17.045 5.00007C10.4945 5.00007 5.15602 10.3371 5.15002 16.8891C5.15002 18.9876 5.69902 21.0291 6.73552 22.8366L5.05402 29.0001L11.36 27.3471C13.1045 28.2964 15.0589 28.7941 17.045 28.7946H17.051C23.603 28.7946 28.94 23.4576 28.946 16.8996C28.9475 15.3366 28.6397 13.7889 28.0404 12.3454C27.4411 10.9019 26.5621 9.59132 25.454 8.48907H25.4555ZM17.045 26.7816C15.2735 26.7822 13.5346 26.3055 12.011 25.4016L11.651 25.1856L7.91002 26.1666L8.90902 22.5171L8.67502 22.1406C7.68473 20.5661 7.16099 18.7431 7.16452 16.8831C7.16452 11.4441 11.6 7.00707 17.051 7.00707C18.3496 7.00474 19.6359 7.25949 20.8355 7.75661C22.0352 8.25374 23.1247 8.98341 24.041 9.90357C24.9606 10.8201 25.6895 11.9097 26.1859 13.1094C26.6823 14.3091 26.9362 15.5952 26.933 16.8936C26.927 22.3521 22.4915 26.7816 17.045 26.7816V26.7816ZM22.4675 19.3806C22.172 19.2321 20.7125 18.5136 20.438 18.4116C20.165 18.3141 19.9655 18.2631 19.7705 18.5601C19.571 18.8556 19.001 19.5291 18.83 19.7226C18.659 19.9221 18.482 19.9446 18.185 19.7976C17.8895 19.6476 16.931 19.3356 15.797 18.3201C14.912 17.5326 14.3195 16.5576 14.1425 16.2621C13.9715 15.9651 14.126 15.8061 14.2745 15.6576C14.405 15.5256 14.57 15.3096 14.7185 15.1386C14.8685 14.9676 14.918 14.8416 15.0155 14.6436C15.113 14.4426 15.0665 14.2716 14.993 14.1231C14.918 13.9746 14.3255 12.5091 14.075 11.9181C13.835 11.3346 13.5905 11.4156 13.4075 11.4081C13.2365 11.3976 13.037 11.3976 12.8375 11.3976C12.6869 11.4013 12.5386 11.4362 12.4021 11.4999C12.2655 11.5637 12.1436 11.655 12.044 11.7681C11.771 12.0651 11.0075 12.7836 11.0075 14.2491C11.0075 15.7146 12.0725 17.1231 12.2225 17.3226C12.3695 17.5221 14.3135 20.5206 17.297 21.8106C18.002 22.1181 18.557 22.2996 18.9905 22.4376C19.703 22.6656 20.3465 22.6311 20.8595 22.5576C21.4295 22.4706 22.616 21.8376 22.8665 21.1431C23.1125 20.4471 23.1125 19.8531 23.0375 19.7286C22.964 19.6026 22.7645 19.5291 22.4675 19.3806V19.3806Z" fill="white"/>
</svg>
